<?xml version="1.0" standalone="no"?>
<!DOCTYPE svg PUBLIC "-//W3C//DTD SVG 20010904//EN"
 "http://www.w3.org/TR/2001/REC-SVG-20010904/DTD/svg10.dtd">
<svg version="1.0" xmlns="http://www.w3.org/2000/svg"
 width="480.000000pt" height="480.000000pt" viewBox="0 0 480.000000 480.000000"
 preserveAspectRatio="xMidYMid meet">
<metadata>
Created by potrace 1.14, written by Peter Selinger 2001-2017
</metadata>
<g transform="translate(0.000000,480.000000) scale(0.100000,-0.100000)"
fill="#000000" stroke="none">
<path d="M2830 3715 c0 -16 -8 -37 -17 -47 -15 -17 -15 -20 -3 -28 8 -6 18
-10 21 -10 13 0 21 92 10 103 -8 8 -11 3 -11 -18z"/>
<path d="M2563 3693 c13 -100 43 -213 56 -213 4 0 24 -16 44 -35 20 -19 42
-35 50 -35 37 0 75 23 93 57 10 20 23 45 29 55 5 10 13 18 18 18 4 0 5 12 1
28 -12 54 -12 54 -38 35 l-24 -18 21 -6 c21 -6 20 -7 -8 -19 -27 -11 -28 -13
-10 -20 25 -10 13 -15 -68 -28 -59 -9 -93 3 -38 14 47 10 37 24 -16 24 -53 0
-51 10 4 20 36 7 35 8 -16 9 -49 1 -53 2 -36 15 17 13 17 14 1 23 -17 10 -17
10 0 17 17 6 16 8 -6 19 -14 7 -27 26 -32 45 -12 45 -31 41 -25 -5z"/>
<path d="M3032 3009 c-57 -29 -88 -79 -116 -192 -26 -103 -49 -155 -74 -164
-9 -3 -40 -23 -68 -45 -72 -54 -130 -72 -215 -66 -94 7 -140 39 -181 125 -37
76 -106 143 -173 168 -68 25 -75 33 -46 56 50 41 117 16 221 -85 68 -66 113
-96 126 -83 3 2 -40 50 -94 106 -108 110 -156 139 -246 148 -92 9 -156 -46
-156 -134 0 -49 14 -62 40 -38 11 10 26 15 36 11 22 -9 15 -62 -23 -164 l-28
-77 -5 89 c-5 93 -24 128 -34 64 -13 -83 -13 -108 0 -183 17 -97 18 -164 3
-256 -11 -63 -15 -70 -38 -75 -14 -3 -31 -7 -37 -9 -17 -5 -24 -58 -10 -80 24
-40 -17 -160 -64 -185 -20 -11 -30 4 -30 44 0 33 -38 78 -60 71 -31 -10 -48 5
-100 86 -48 77 -68 93 -120 101 -18 2 -25 -2 -28 -17 -2 -11 -7 -29 -12 -40
-21 -49 -30 -143 -20 -206 22 -140 31 -186 45 -229 7 -25 23 -88 35 -140 12
-52 34 -135 49 -185 46 -147 46 -148 17 -143 l-25 5 20 -29 c26 -36 35 -98 19
-127 -11 -21 -17 -22 -93 -18 -45 2 -108 10 -140 18 -56 13 -62 12 -120 -10
-91 -36 -153 -38 -197 -9 -25 17 -36 32 -38 55 -4 42 17 59 86 72 55 11 74 16
152 47 19 7 58 13 86 14 28 0 53 2 56 5 3 3 -3 38 -12 78 -9 39 -20 132 -24
206 -4 79 -15 163 -26 205 -10 39 -19 82 -19 96 1 35 -23 120 -33 120 -10 0
-10 -22 2 -80 5 -25 16 -101 25 -170 l17 -124 -22 -18 -21 -17 20 -67 c31 -98
28 -130 -11 -154 -74 -45 -151 -13 -164 68 -8 52 -20 70 -34 56 -9 -9 -6 -29
9 -79 39 -126 23 -163 -77 -173 -60 -5 -79 14 -103 106 -22 83 -26 36 -4 -53
19 -81 19 -81 -17 -103 -49 -30 -101 -37 -121 -17 -16 15 -17 15 -17 -5 0 -11
16 -37 35 -57 19 -20 40 -54 46 -77 49 -187 94 -281 170 -353 102 -96 300
-109 474 -32 76 34 159 118 188 192 28 69 52 206 43 242 -8 30 10 36 82 29 39
-4 71 -1 100 9 l44 15 93 -96 c52 -54 119 -112 152 -132 32 -19 82 -55 112
-81 63 -56 150 -104 211 -118 58 -13 164 7 253 47 36 17 97 37 135 46 115 26
218 79 323 166 45 38 125 64 189 62 32 0 131 -25 190 -46 125 -46 224 -24 305
66 56 63 94 175 65 193 -5 3 -10 -3 -10 -15 0 -37 -50 -129 -88 -160 -61 -50
-97 -63 -171 -58 -36 2 -79 10 -96 19 -27 13 -30 20 -33 65 l-3 50 62 25 c100
39 110 62 100 229 -2 29 4 62 17 92 12 26 24 64 27 85 6 32 0 25 -37 -44 -64
-123 -101 -170 -153 -195 -70 -34 -76 -14 -22 63 54 79 89 146 112 222 19 62
55 100 89 95 17 -2 21 -10 20 -40 -1 -21 2 -38 6 -38 21 0 22 168 2 193 -13
15 -18 14 -65 -9 -29 -14 -69 -42 -89 -62 -21 -20 -38 -30 -38 -23 0 24 53
125 76 146 18 17 23 38 34 140 27 257 24 455 -6 455 -8 0 -17 7 -20 15 -4 8
-11 15 -18 15 -8 0 -11 -45 -11 -153 -1 -173 -8 -202 -64 -267 -32 -37 -41
-42 -54 -32 -26 22 -69 194 -118 467 -19 110 -19 110 1 157 32 74 26 255 -7
235 -6 -4 -48 9 -94 29 -187 77 -255 88 -327 53z m58 -57 c0 -5 -22 -29 -48
-53 -26 -24 -58 -57 -70 -74 -24 -34 -29 -19 -11 36 17 50 67 99 101 99 15 0
28 -4 28 -8z m236 -134 c22 -43 16 -44 -14 -2 -42 59 -48 71 -23 49 13 -11 29
-32 37 -47z m-79 -18 c29 -17 60 -57 51 -65 -2 -3 -46 5 -98 16 -61 12 -113
17 -145 14 -42 -5 -47 -4 -30 6 30 19 126 48 160 48 17 1 44 -8 62 -19z m26
-116 c107 -36 122 -51 148 -153 23 -91 26 -165 13 -274 l-9 -68 -55 42 c-30
22 -71 50 -92 60 -91 47 -260 66 -292 33 -20 -19 -20 -24 -1 -51 13 -18 27
-22 102 -25 68 -2 100 -9 143 -29 90 -42 214 -139 198 -155 -2 -2 -101 7 -219
20 -118 14 -227 23 -244 21 -74 -9 -96 -17 -112 -42 -16 -24 -19 -25 -92 -19
-143 10 -160 15 -177 51 -26 56 -96 79 -349 115 -82 12 -152 24 -154 26 -9 9
25 31 95 62 92 42 178 51 257 28 63 -18 91 -12 100 23 8 31 -13 49 -78 66 -99
25 -177 16 -289 -34 -27 -11 -50 -20 -52 -18 -7 7 29 274 39 296 21 43 92 46
153 6 13 -8 47 -48 77 -88 68 -92 105 -123 169 -142 63 -18 105 -19 180 -1 80
19 120 47 171 119 113 157 200 188 370 131z m-948 -531 c55 -8 116 -24 135
-35 l35 -19 -70 8 c-38 4 -130 8 -202 8 -119 0 -133 1 -133 17 0 9 -6 20 -12
25 -18 11 36 20 97 15 28 -1 95 -10 150 -19z m940 -118 c125 -22 129 -23 105
-54 l-18 -25 -85 27 c-51 17 -127 31 -189 37 -57 5 -112 12 -123 16 -19 8 -18
9 5 16 36 11 190 2 305 -17z m-967 -8 c4 -20 -25 -34 -40 -19 -15 15 -1 44 19
40 10 -2 19 -11 21 -21z m-114 -44 c-7 -85 7 -105 85 -122 52 -11 67 -11 88 0
20 11 26 11 33 -1 7 -12 12 -11 29 4 12 11 26 34 33 52 15 42 23 42 43 4 16
-30 19 -67 9 -95 -18 -46 -121 -57 -294 -30 -95 14 -200 41 -200 51 0 3 11 20
25 38 13 18 26 41 28 52 4 30 85 104 113 104 9 0 11 -17 8 -57z m565 16 c64
-11 69 -14 54 -38 -9 -14 -9 -44 -2 -115 14 -142 46 -204 116 -227 39 -13 58
-4 22 10 -26 10 -68 51 -52 51 5 0 23 -4 39 -10 45 -15 331 -50 412 -50 71 0
73 -1 66 -22 -10 -32 -24 -39 -64 -34 -121 18 -150 19 -150 5 0 -29 18 -38
104 -55 49 -10 90 -23 93 -31 3 -7 0 -26 -5 -43 -18 -49 -159 -255 -210 -305
-59 -59 -161 -126 -232 -155 -71 -28 -147 -67 -185 -96 -42 -32 -115 -64 -145
-64 -69 0 -104 21 -202 118 -53 53 -129 129 -169 167 -83 80 -149 166 -189
245 -42 84 -81 208 -87 276 l-6 62 111 -1 c102 -1 134 4 120 18 -3 3 -37 11
-74 16 -74 12 -114 30 -114 54 0 17 2 18 56 5 23 -5 112 -18 196 -29 145 -18
214 -17 246 3 7 4 12 3 12 -3 0 -17 -43 -41 -73 -41 -16 0 -37 -5 -48 -10 -47
-26 2 -48 66 -30 62 17 99 61 130 155 15 44 33 88 41 99 20 29 17 55 -8 77
l-23 19 50 -6 c28 -3 74 -10 104 -15z m-1137 -25 c42 -32 45 -38 38 -64 -6
-21 -1 -50 22 -117 28 -79 30 -96 25 -168 -5 -65 -11 -83 -28 -97 -12 -10 -27
-18 -35 -18 -15 0 -41 81 -54 163 -4 29 -15 104 -25 168 -17 108 -16 169 4
169 4 0 28 -16 53 -36z m1476 -47 c4 -20 -25 -34 -40 -19 -15 15 -1 44 19 40
10 -2 19 -11 21 -21z m-94 -142 c20 -31 54 -40 114 -30 26 4 62 7 80 7 27 -1
37 6 53 31 10 18 19 49 19 70 0 20 4 37 9 37 8 0 37 -31 81 -87 6 -7 10 -21
10 -33 0 -11 5 -29 10 -40 6 -11 15 -29 20 -40 9 -17 6 -22 -17 -31 -60 -24
-435 25 -480 63 -29 24 -12 86 38 138 l33 35 7 -48 c4 -27 15 -59 23 -72z
m-1163 -172 c14 -43 2 -59 -29 -37 -21 15 -31 71 -15 87 10 11 31 -12 44 -50z
m65 -308 c27 -17 40 -65 22 -76 -15 -10 -109 -12 -132 -3 -20 8 -20 25 1 69
16 34 20 36 53 30 19 -4 45 -13 56 -20z m-833 -215 c14 -17 35 -47 47 -68 41
-73 110 -90 217 -52 86 30 117 27 142 -14 25 -39 38 -46 92 -46 34 0 39 -3 39
-22 0 -36 -12 -46 -72 -67 -76 -26 -96 -38 -103 -60 -3 -11 -21 -25 -39 -31
-48 -15 -194 -16 -245 0 -69 22 -141 95 -184 187 -52 111 -52 113 13 162 30
22 58 41 61 41 4 0 19 -14 32 -30z"/>
<path d="M2505 1658 c-42 -33 -58 -78 -42 -125 10 -32 22 -43 76 -70 55 -29
74 -33 139 -33 86 0 136 19 157 61 21 40 18 81 -7 119 -26 38 -56 55 -43 24
21 -49 18 -81 -12 -104 -25 -20 -37 -22 -104 -18 -101 6 -153 31 -157 76 -2
19 4 44 13 59 22 33 14 38 -20 11z"/>
<path d="M2240 1435 c-10 -12 -7 -19 17 -42 17 -15 40 -54 53 -86 16 -40 40
-75 78 -112 63 -61 118 -91 198 -107 138 -28 345 56 413 166 12 19 31 36 43
38 30 4 45 32 29 52 -18 21 -60 20 -91 -1 -22 -16 -46 -18 -200 -15 -249 4
-379 31 -469 97 -39 29 -54 31 -71 10z"/>
<path d="M2320 1229 c1 -35 78 -128 130 -158 41 -23 171 -46 255 -45 37 0 67
9 110 32 59 32 131 90 122 99 -3 2 -31 -9 -63 -25 -90 -45 -181 -73 -243 -74
-78 -3 -150 33 -239 117 -40 37 -72 61 -72 54z"/>
<path d="M2691 2947 c-13 -73 -13 -101 -2 -72 10 24 24 135 18 135 -3 0 -10
-28 -16 -63z"/>
<path d="M1847 2733 c-5 -8 -37 -113 -37 -120 0 -2 8 1 19 6 12 7 20 26 24 62
6 51 4 69 -6 52z"/>
<path d="M1761 2465 c-1 -11 -4 -31 -6 -45 l-6 -25 11 25 c6 13 9 33 7 45 -4
19 -4 19 -6 0z"/>
<path d="M1735 2380 c3 -5 8 -10 11 -10 2 0 4 5 4 10 0 6 -5 10 -11 10 -5 0
-7 -4 -4 -10z"/>
<path d="M1730 2315 c7 -9 15 -13 17 -11 7 7 -7 26 -19 26 -6 0 -6 -6 2 -15z"/>
<path d="M1785 2188 c-17 -59 -20 -87 -6 -72 14 13 41 124 30 124 -4 0 -15
-23 -24 -52z"/>
<path d="M792 1260 c0 -14 2 -19 5 -12 2 6 2 18 0 25 -3 6 -5 1 -5 -13z"/>
</g>
</svg>
